#!OML:ASF F:\VICON\USERDATA\INSTALL\rory3\rory3.ASF
:FULLY-SPECIFIED
:DEGREES
749
root 0.499774 15.4617 3.64826 13.4613 -41.2642 13.1951
lowerback 5.34803 6.53959 9.27538
upperback 7.30768 8.94421 -3.81619
thorax 6.90941 5.15542 -9.04936
lowerneck -1.99818 -5.77463 -10.4216
upperneck 52.9867 -10.7351 5.14908
head 25.1769 -5.64343 3.11317
rclavicle 5.24792e-014 -6.04305e-014
rhumerus -55.3745 62.1612 -138.357
rradius 93.6615
rwrist -27.1774
rhand 16.7335 -26.5713
rfingers 7.12502
rthumb 41.4808 -51.3329
lclavicle 5.24792e-014 -6.04305e-014
lhumerus -17.9216 -74.1712 95.0493
lradius 102.029
lwrist 27.6498
lhand -11.9781 -25.506
lfingers 7.12502
lthumb 14.0781 3.99713
rfemur -67.3615 -7.77684 10.5838
rtibia 88.5296
rfoot -10.7806 -19.0892
rtoes -27.7045
lfemur -58.6 -23.152 -27.6593
ltibia 60.5893
lfoot -22.4353 -3.93992
ltoes 16.7178
750
root 0.508106 15.4611 3.65683 13.3896 -41.1905 13.3338
lowerback 5.17787 6.5343 9.28217
upperback 7.27667 8.93043 -3.87049
thorax 6.97994 5.15411 -9.0939
lowerneck -1.91645 -5.79389 -10.2701
upperneck 53.0799 -10.7802 5.05044
head 25.2159 -5.6403 3.02106
rclavicle 5.88403e-014 -2.54444e-014
rhumerus -55.1799 62.0632 -138.271
rradius 93.6543
rwrist -27.1206
rhand 16.4692 -26.1414
rfingers 7.12502
rthumb 41.2327 -50.9834
lclavicle 5.88403e-014 -2.54444e-014
lhumerus -18.3469 -73.983 95.4962
lradius 101.925
lwrist 27.2335
lhand -10.2605 -26.1745
lfingers 7.12502
lthumb 15.7327 3.20597
rfemur -67.365 -8.08182 10.4786
rtibia 88.5598
rfoot -11.2246 -18.8373
rtoes -26.9283
lfemur -58.5998 -23.3497 -27.7699
ltibia 60.5876
lfoot -22.4026 -3.89323
ltoes 17.0701
751
root 0.515663 15.4594 3.66866 13.2343 -41.2602 13.5443
lowerback 5.04303 6.73911 9.30572
upperback 7.3262 9.20471 -4.03913
thorax 7.21846 5.31603 -9.24841
lowerneck -1.88557 -5.96741 -9.92503
upperneck 53.1322 -11.1945 5.15575
head 25.3318 -5.70978 2.93911
rclavicle 6.99722e-014 -3.02153e-014
rhumerus -53.8197 61.5533 -137.123
rradius 93.6298
rwrist -27.0385
rhand 16.3263 -25.9821
rfingers 7.12502
rthumb 41.0986 -50.867
lclavicle 6.99722e-014 -3.02153e-014
lhumerus -17.656 -74.5961 94.8426
lradius 101.971
lwrist 27.3291
lhand -10.4327 -26.0758
lfingers 7.12502
lthumb 15.5669 3.31773
rfemur -67.2835 -8.22875 10.1981
rtibia 88.6136
rfoot -12.1064 -18.2081
rtoes -25.0072
lfemur -58.5705 -23.5173 -27.9251
ltibia 60.6021
lfoot -22.4264 -3.75517
ltoes 17.4467
752
root 0.52107 15.4545 3.67731 13.0919 -41.4089 13.6405
lowerback 4.9554 6.88308 9.28976
upperback 7.42692 9.39341 -4.12491
thorax 7.44328 5.4288 -9.29893
lowerneck -1.93607 -6.07599 -9.6009
upperneck 53.1389 -11.3872 5.05904
head 25.3233 -5.71389 2.77607
rclavicle -7.79236e-014 1.43125e-014
rhumerus -52.7747 61.3494 -136.269
rradius 93.4868
rwrist -27.0482
rhand 16.7734 -26.0327
rfingers 7.12502
rthumb 41.5182 -50.7821
lclavicle -7.79236e-014 1.43125e-014
lhumerus -16.4938 -74.9144 93.7715
lradius 101.923
lwrist 27.1987
lhand -10.8025 -26.0228
lfingers 7.12502
lthumb 15.2107 3.39805
rfemur -67.1842 -8.19634 9.98752
rtibia 88.6719
rfoot -12.8213 -17.6338
rtoes -23.3732
lfemur -58.5021 -23.6003 -28.0166
ltibia 60.6575
lfoot -22.6319 -3.31101
ltoes 16.3047
753
root 0.526388 15.4486 3.67464 13.1187 -41.5071 13.4518
lowerback 5.06617 6.85793 9.32968
upperback 7.39882 9.36421 -4.05592
thorax 7.33499 5.40657 -9.26451
lowerneck -1.9067 -6.04467 -9.38767
upperneck 53.1955 -11.1784 4.61149
head 25.1773 -5.62629 2.50689
rclavicle 3.18055e-015 1.90833e-014
rhumerus -52.9404 61.5133 -136.464
rradius 93.3122
rwrist -27.0535
rhand 17.205 -26.0202
rfingers 7.12502
rthumb 41.923 -50.636
lclavicle 3.18055e-015 1.90833e-014
lhumerus -16.5217 -74.5928 93.8993
lradius 101.8
lwrist 26.5241
lhand -10.2226 -25.5879
lfingers 7.12502
lthumb 15.7693 3.78975
rfemur -67.1979 -8.09358 10.1666
rtibia 88.7061
rfoot -12.5725 -17.7719
rtoes -24.3097
lfemur -58.4962 -23.4877 -27.9151
ltibia 60.7656
lfoot -22.7757 -3.04233
ltoes 15.1515
754
root 0.533209 15.4432 3.66469 13.2083 -41.5386 13.1783
lowerback 5.22196 6.79153 9.4777
upperback 7.34056 9.28636 -3.98731
thorax 7.17691 5.36388 -9.30245
lowerneck -1.81627 -5.95387 -9.43757
upperneck 53.2195 -10.9905 4.51966
head 25.1091 -5.58068 2.50217
rclavicle -1.43125e-014 -1.43125e-014
rhumerus -53.2263 61.6463 -136.719
rradius 93.2665
rwrist -27.081
rhand 17.2413 -25.9424
rfingers 7.12502
rthumb 41.957 -50.5469
lclavicle -1.43125e-014 -1.43125e-014
lhumerus -16.8025 -74.3552 94.1804
lradius 101.743
lwrist 26.0778
lhand -10.206 -25.4538
lfingers 7.12502
lthumb 15.7853 3.92257
rfemur -67.2522 -8.00049 10.4897
rtibia 88.7421
rfoot -12.3093 -17.9765
rtoes -25.1998
lfemur -58.5298 -23.3182 -27.7445
ltibia 60.8846
lfoot -22.8406 -2.94314
ltoes 14.5008
755
root 0.540697 15.4359 3.65624 13.0771 -41.5716 13.2612
lowerback 5.28379 6.73147 9.40788
upperback 7.33786 9.20988 -4.01078
thorax 7.11045 5.31938 -9.30422
lowerneck -1.78184 -5.8613 -9.67125
upperneck 53.2563 -10.9436 4.79899
head 25.241 -5.60004 2.72912
rclavicle 3.81667e-014 -7.15625e-014
rhumerus -53.2201 61.6789 -136.689
rradius 93.3052
rwrist -27.0342
rhand 17.2731 -25.5443
rfingers 7.12502
rthumb 41.9868 -50.1388
lclavicle 3.81667e-014 -7.15625e-014
lhumerus -17.2596 -74.1858 94.609
lradius 101.763
lwrist 25.8531
lhand -9.86338 -25.5764
lfingers 7.12502
lthumb 16.1152 3.77354
rfemur -67.3244 -8.00206 10.4687
rtibia 88.8389
rfoot -12.4001 -18.0124
rtoes -25.0036
lfemur -58.5184 -23.2904 -27.8284
ltibia 60.9519
lfoot -22.9148 -2.73594
ltoes 13.7455
756
root 0.547611 15.4293 3.65516 12.7685 -41.6914 13.5802
lowerback 5.32196 6.64455 9.14783
upperback 7.30136 9.09265 -4.03271
thorax 6.97225 5.23715 -9.20089
lowerneck -1.67898 -5.69641 -9.9207
upperneck 53.396 -10.7218 4.91308
head 25.3952 -5.57645 2.90282
rclavicle -1.98785e-013 6.20208e-014
rhumerus -53.6363 61.767 -136.998
rradius 93.3211
rwrist -26.9845
rhand 17.375 -25.1389
rfingers 7.12502
rthumb 42.0824 -49.7013
lclavicle -1.98785e-013 6.20208e-014
lhumerus -18.3878 -73.7661 95.7602
lradius 101.796
lwrist 25.7272
lhand -9.13528 -25.5835
lfingers 7.12502
lthumb 16.8162 3.70836
rfemur -67.3501 -8.04297 10.1661
rtibia 88.9548
rfoot -12.6892 -17.9385
rtoes -24.0598
lfemur -58.4275 -23.3471 -28.0964
ltibia 60.97
lfoot -22.987 -2.37376
ltoes 13.0563
757
root 0.552818 15.4263 3.6601 12.4967 -41.8586 13.8324
lowerback 5.31251 6.5954 8.96093
upperback 7.22876 9.02552 -4.0527
thorax 6.84807 5.18407 -9.12775
lowerneck -1.47163 -5.50462 -10.0595
upperneck 53.5486 -10.4567 4.95913
head 25.466 -5.52091 3.02611
rclavicle -2.38542e-014 3.02153e-014
rhumerus -54.0786 61.8179 -137.394
rradius 93.239
rwrist -26.9752
rhand 17.9477 -25.0775
rfingers 7.12502
rthumb 42.6186 -49.4568
lclavicle -2.38542e-014 3.02153e-014
lhumerus -19.2195 -73.4765 96.5626
lradius 101.81
lwrist 25.6058
lhand -9.24776 -25.6333
lfingers 7.12502
lthumb 16.7079 3.66768
rfemur -67.3162 -8.10715 9.91748
rtibia 89.0201
rfoot -12.8733 -17.8126
rtoes -23.2576
lfemur -58.2893 -23.3937 -28.3469
ltibia 60.976
lfoot -23.0366 -2.15467
ltoes 13.127
758
root 0.555881 15.4277 3.66834 12.5486 -42.0068 13.7739
lowerback 5.11545 6.618 9.01114
upperback 7.13704 9.04729 -4.05096
thorax 6.87228 5.19507 -9.13269
lowerneck -1.20296 -5.37785 -10.2129
upperneck 53.5458 -10.3616 5.18867
head 25.3898 -5.51351 3.22362
rclavicle -6.36111e-015 4.77083e-014
rhumerus -54.4195 61.7818 -137.807
rradius 93.0829
rwrist -26.7739
rhand 18.5627 -25.089
rfingers 7.12502
rthumb 43.1939 -49.2661
lclavicle -6.36111e-015 4.77083e-014
lhumerus -19.913 -73.5407 97.1861
lradius 101.793
lwrist 26.1661
lhand -10.5196 -26.0112
lfingers 7.12502
lthumb 15.4832 3.38882
rfemur -67.3437 -8.17457 9.98895
rtibia 89.0165
rfoot -12.5409 -17.9144
rtoes -23.8697
lfemur -58.2913 -23.3619 -28.3441
ltibia 61.017
lfoot -23.0965 -2.12038
ltoes 13.5942
759
root 0.558217 15.4313 3.67887 12.7849 -42.1459 13.4327
lowerback 4.82977 6.65987 9.28836
upperback 7.13391 9.08704 -4.0008
thorax 7.08433 5.23854 -9.19187
lowerneck -1.10477 -5.32873 -10.3997
upperneck 53.4942 -10.3665 5.42689
head 25.3675 -5.54357 3.40573
rclavicle 3.97569e-014 5.56597e-014
rhumerus -54.6432 61.7773 -138.107
rradius 92.9742
rwrist -26.4217
rhand 18.9308 -25.013
rfingers 7.12502
rthumb 43.5378 -49.0661
lclavicle 3.97569e-014 5.56597e-014
lhumerus -19.1547 -73.2426 96.4587
lradius 101.797
lwrist 25.6067
lhand -8.85592 -25.2176
lfingers 7.12502
lthumb 17.0851 4.05113
rfemur -67.3005 -8.16617 10.2723
rtibia 88.9759
rfoot -12.3289 -17.9744
rtoes -24.3586
lfemur -58.3252 -23.2611 -28.1287
ltibia 61.1173
lfoot -23.219 -1.966
ltoes 13.6506
760
root 0.562397 15.4231 3.67026 12.7446 -42.2179 13.2683
lowerback 4.9396 6.70142 9.4048
upperback 7.18144 9.15095 -4.00907
thorax 7.11531 5.28219 -9.27113
lowerneck -1.26578 -5.42334 -10.1877
upperneck 53.6746 -10.4932 5.23125
head 25.6341 -5.56259 3.22458
rclavicle 1.86062e-013 0
rhumerus -54.3331 61.6051 -137.898
rradius 92.9262
rwrist -26.086
rhand 19.1703 -24.8329
rfingers 7.12502
rthumb 43.7614 -48.8042
lclavicle 1.86062e-013 0
lhumerus -17.7981 -73.4755 95.0834
lradius 101.812
lwrist 25.8461
lhand -8.47852 -25.2501
lfingers 7.12502
lthumb 17.4484 3.98681
rfemur -67.2604 -8.08614 10.4345
rtibia 89.0287
rfoot -12.5177 -17.876
rtoes -23.7389
lfemur -58.3002 -23.1096 -28.0474
ltibia 61.2589
lfoot -23.2938 -1.88763
ltoes 13.2855
761
root 0.568964 15.4052 3.64579 12.5288 -42.2236 13.2835
lowerback 5.36037 6.71078 9.36668
upperback 7.19426 9.19443 -4.076
thorax 6.90788 5.2975 -9.37374
lowerneck -1.44016 -5.54538 -9.65425
upperneck 53.8836 -10.5728 4.70438
head 25.7893 -5.51333 2.781
rclavicle -1.90833e-014 8.11041e-014
rhumerus -53.7575 61.2688 -137.429
rradius 92.9602
rwrist -25.8906
rhand 19.0885 -24.644
rfingers 7.12502
rthumb 43.685 -48.6433
lclavicle -1.90833e-014 8.11041e-014
lhumerus -16.9502 -73.8317 94.1564
lradius 101.799
lwrist 25.7554
lhand -8.97618 -25.6032
lfingers 7.12502
lthumb 16.9694 3.67556
rfemur -67.3344 -8.00639 10.5253
rtibia 89.1485
rfoot -12.3757 -17.9281
rtoes -23.8939
lfemur -58.3129 -23.0036 -28.0351
ltibia 61.4046
lfoot -23.2689 -1.90011
ltoes 13.0433
